<svg width="21" height="18" viewBox="0 0 21 18" fill="none" xmlns="http://www.w3.org/2000/svg">
<path d="M18.2374 4H5.5L7.3186 11.729C7.42488 12.1808 7.82796 12.5 8.29202 12.5H16.708C17.172 12.5 17.5751 12.1808 17.6814 11.729L19.2108 5.22904C19.3585 4.60133 18.8822 4 18.2374 4Z" fill="white"/>
<path d="M1 2L1.45939 1.86874C3.15963 1.38296 4.94082 2.32247 5.5 4V4M5.5 4H18.2374C18.8822 4 19.3585 4.60133 19.2108 5.22904L17.6814 11.729C17.5751 12.1808 17.172 12.5 16.708 12.5H8.29202C7.82796 12.5 7.42488 12.1808 7.3186 11.729L5.5 4Z" stroke="white" stroke-width="2"/>
<circle cx="15.5" cy="16.5" r="1" fill="white" stroke="white"/>
<circle cx="9.5" cy="16.5" r="1" fill="white" stroke="white"/>
</svg>
