<?xml version="1.0" encoding="utf-8"?>
<!-- Generator: Adobe Illustrator 28.0.0, SVG Export Plug-In . SVG Version: 6.00 Build 0)  -->
<svg version="1.1" id="Layer_1" xmlns="http://www.w3.org/2000/svg" xmlns:xlink="http://www.w3.org/1999/xlink" x="0px" y="0px"
	 viewBox="0 0 512 512" style="enable-background:new 0 0 512 512;" xml:space="preserve">
<style type="text/css">
	.st0{fill:#114123;}
</style>
<path class="st0" d="M512,317.1v5.4c-0.2,1.8-0.4,3.5-0.5,5.3c-0.8,17.5-6.3,35.3-14.5,50.2c-21.7,38.9-62,62-106.5,62
	c-95,0-190-0.1-285-0.2c-30.1,0-55.2-10.3-75.5-30.8c-18.9-19.1-28.9-42.6-30-70.6V334c0.6-5.1,0.8-10.6,1.6-15.3
	c5.3-30.3,23.6-56.2,49.8-71.8c0.3-0.2,0.5-0.6,0.4-1c-1.3-4.8-2.8-10-3.3-14.7c-5.2-45.8,34.4-83.2,79-78.8c4.4,0.5,9.3,2,13.8,3.1
	c0.2,0,0.4-0.1,0.5-0.3c23.8-50.5,73.6-82.9,129.4-83.3c74.1-0.6,135.7,56.2,143.2,129.7c0,0.3,0.3,0.6,0.6,0.7
	c4.1,1,8.6,1.9,12.3,3.1C476.9,221.2,510.2,265,512,317.1z M224,295c0.1,19.3,0.1,38.6,0,57.9c0,5.4,0.4,9.2,1.2,11.5
	c1.6,4.2,4.4,7.2,8.5,8.8c2.5,1,7.1,1.5,13.9,1.4c6,0,12,0,18,0c9.5,0.1,17.3-0.6,21-9.6c1-2.5,1.5-6.7,1.5-12.8
	c0-19.2-0.1-38.3,0-57.5c0-0.2,0.1-0.3,0.3-0.3c9.2,0,18.4-0.1,27.6-0.2c3.1,0,5.2-0.2,6.4-0.4c11.4-2,16.9-11.4,11.5-22.2
	c-0.9-1.9-2.6-3.9-4.9-6.3c-18.8-18.5-37.6-37.1-56.4-55.7c-3.2-3.2-6.3-5.6-9.3-7.5c-8.7-5.2-16.5,0.3-22.6,6.3
	c-19.3,19-38.5,38-57.8,57c-2.1,2.1-3.7,4-4.5,5.7c-7.4,14.1,3.4,23.2,16.8,23.2c9.4,0,18.9,0,28.3,0.1
	C223.8,294.5,224,294.7,224,295z"/>
</svg>
