<svg width="168" height="168" viewBox="0 0 168 168" fill="none" xmlns="http://www.w3.org/2000/svg">
<circle cx="83.8739" cy="83.8739" r="83.8739" fill="white"/>
<path d="M138.88 127.224C122.132 124.772 106.253 122.464 90.3738 120.122C78.1248 118.325 65.8981 116.405 53.6379 114.719C50.6982 114.319 48.7383 113.376 47.2462 110.591C42.3132 101.414 37.0127 92.4372 31.9127 83.3383C25.9997 72.7968 29.2402 63.4759 40.2643 58.8599C41.2108 58.4604 42.0125 57.6171 42.7809 56.8736C43.4601 56.2079 43.8499 55.0206 44.6294 54.6988C51.9788 51.6695 59.3727 48.7401 66.8001 45.8772C68.7822 45.1116 71.2876 45.2004 72.88 44.0131C81.4655 37.5772 95.1064 41.7938 94.249 53.4005C94.1487 54.8208 95.9638 56.6406 97.2889 57.8501C109.95 69.4901 122.644 81.0857 135.461 92.5593C138.056 94.8784 139.214 97.1975 139.036 100.815C138.702 107.684 139.091 114.585 139.136 121.476C139.136 123.196 138.991 124.927 138.891 127.224H138.88ZM131.052 94.2237C131.152 93.9019 131.241 93.5801 131.341 93.2584C118.535 81.5851 105.774 69.8785 92.8682 58.3162C91.7435 57.3175 89.65 56.9069 88.0577 56.9846C71.6997 57.839 57.914 64.2305 46.9789 76.4808C45.999 77.5793 45.2529 78.8887 44.0726 80.5642C73.6372 85.2025 102.344 89.7075 131.052 94.2126V94.2237ZM136.319 116.205C136.319 111.478 136.118 107.206 136.374 102.957C136.608 99.1172 135.127 97.7967 131.286 97.2419C113.625 94.7009 96.0195 91.7825 78.3921 89.0307C67.3123 87.2997 56.2214 85.6019 44.2062 83.7488C47.97 90.451 51.2215 96.4541 54.7515 102.302C55.3305 103.267 57.1011 103.778 58.4151 104C69.673 105.875 80.9421 107.672 92.2112 109.426C106.632 111.678 121.052 113.875 136.319 116.217V116.205ZM90.6188 53.4005C90.7302 52.99 91.0976 52.4018 90.9306 52.1355C89.405 49.7055 88.2915 46.5874 86.0867 45.1005C82.6013 42.7592 78.6927 44.0242 75.2296 46.2545C73.537 47.3419 71.6106 49.195 69.9737 49.0064C64.8848 48.4183 60.7869 49.4391 57.4574 53.4893C56.934 54.1218 55.4196 54.1551 54.3729 54.1218C50.2639 54.0108 47.3464 55.8972 45.0525 59.1373C44.2842 60.2136 43.2597 61.523 42.1016 61.8448C33.0262 64.408 29.4851 72.3752 34.0952 80.8083C39.173 90.0959 44.4066 99.3058 49.8296 108.405C50.7205 109.892 52.8251 111.268 54.5511 111.545C73.292 114.552 92.0664 117.359 110.83 120.156C119.059 121.376 127.299 122.464 135.484 123.596C137.198 119.634 135.06 119.013 132.366 118.602C107.255 114.741 82.1336 110.913 57.0565 106.829C55.0521 106.507 52.7248 104.787 51.6113 103.045C47.9143 97.2308 44.8743 91.0058 41.233 85.147C39.4625 82.2952 39.8745 80.309 41.7898 77.8456C50.4755 66.6717 61.5107 59.0263 75.3521 55.764C80.3185 54.5878 85.4631 54.1662 90.6188 53.3783V53.4005Z" fill="#15814D" stroke="#15814D" stroke-miterlimit="10"/>
</svg>
