<svg width="168" height="168" viewBox="0 0 168 168" fill="none" xmlns="http://www.w3.org/2000/svg">
<circle cx="83.909" cy="83.8739" r="83.8739" fill="white"/>
<path d="M66.4869 125.701C64.2216 124.918 63.2867 123.33 63.2507 121.095C63.2268 119.7 62.999 118.293 62.8672 116.898C62.4717 112.791 62.0761 108.673 61.6806 104.566C61.357 101.186 61.0453 97.7937 60.7217 94.4131C60.3262 90.3291 59.9426 86.2451 59.5471 82.1612C59.2235 78.7465 58.8998 75.3319 58.5762 71.9172C58.1927 67.9694 57.7851 64.0329 57.4375 60.085C57.2937 58.4287 58.2526 56.8746 59.8228 56.2847C60.5779 56.001 61.4409 55.8989 62.2559 55.8989C73.247 55.8763 84.2381 55.8763 95.2412 55.8989C95.9604 55.8989 96.26 55.7401 96.3919 55.0254C96.9672 51.849 97.6624 48.6839 98.2497 45.5075C98.7411 42.8189 100.623 41.3214 102.984 41.0945C105.789 40.8223 108.57 40.3685 111.35 40.0055C113.196 39.7673 115.054 39.529 116.912 39.3021C117.679 39.2114 118.218 39.5631 118.326 40.2778C118.434 40.9584 117.991 41.3782 117.283 41.5256C117.163 41.5483 117.056 41.5824 116.936 41.605C112.441 42.1836 107.946 42.7735 103.452 43.3407C101.798 43.5449 101.078 44.0781 100.707 45.6323C100.407 46.8915 100.179 48.1621 99.9277 49.4327C99.5082 51.5541 99.1007 53.6641 98.6692 55.8649C99.0527 55.8763 99.3404 55.8989 99.6281 55.8989C101.378 55.8989 103.14 55.8876 104.89 55.8989C107.802 55.933 109.528 57.6233 109.313 60.3346C108.977 64.5093 108.558 68.6727 108.162 72.8474C107.779 76.9541 107.371 81.0721 106.975 85.1788C106.592 89.1833 106.22 93.1765 105.837 97.1811C105.441 101.288 105.046 105.406 104.65 109.512C104.267 113.517 103.859 117.51 103.524 121.515C103.356 123.625 102.349 125.043 100.203 125.712C88.9726 125.712 77.7298 125.712 66.4989 125.712L66.4869 125.701ZM61.5487 78.0772C61.9443 82.1952 62.3398 86.3019 62.7354 90.4199C63.1309 94.5038 63.5264 98.5878 63.91 102.672C64.2336 106.007 64.5452 109.331 64.8568 112.666C65.1565 115.741 65.4442 118.826 65.7438 121.9C65.8397 122.831 66.3431 123.296 67.326 123.432C67.6136 123.477 67.9133 123.466 68.2129 123.466C78.3171 123.466 88.4212 123.466 98.5254 123.466C100.503 123.466 100.923 123.046 101.102 121.152C101.534 116.478 102.013 111.804 102.457 107.13C102.84 103.103 103.2 99.0756 103.583 95.037C103.967 90.9757 104.375 86.9258 104.758 82.8645C105.07 79.586 105.381 76.3188 105.693 73.0403C105.693 72.9268 105.681 72.8247 105.669 72.6432C90.8184 72.6432 75.9798 72.6432 61.0453 72.6432C61.2131 74.481 61.369 76.2734 61.5368 78.0545L61.5487 78.0772ZM94.7378 58.1905C83.8905 58.1905 73.0552 58.1905 62.208 58.1905C60.2902 58.1905 59.7389 58.6897 59.8827 60.5161C60.1584 63.7606 60.494 67.0051 60.8176 70.363H61.6806C71.9286 70.363 82.1765 70.363 92.4245 70.3744C93.1197 70.3744 93.3714 70.2269 93.4913 69.5349C94.1865 65.7799 94.9655 62.0363 95.7326 58.1905H94.7258H94.7378ZM106.436 65.519C106.604 63.8173 106.748 62.1043 106.928 60.4027C107.083 58.9506 106.424 58.1905 104.902 58.1905C102.888 58.1905 100.863 58.1905 98.849 58.1905C98.4175 58.1905 98.1418 58.2359 98.0459 58.735C97.3268 62.49 96.5956 66.2337 95.8525 69.9773C95.8285 70.0794 95.8285 70.1929 95.8046 70.329C99.1846 70.329 102.529 70.329 105.945 70.329C106.112 68.7067 106.268 67.1185 106.424 65.5303L106.436 65.519Z" fill="#17804D" stroke="#17804D" stroke-width="2" stroke-miterlimit="10"/>
</svg>
