<svg width="168" height="168" viewBox="0 0 168 168" fill="none" xmlns="http://www.w3.org/2000/svg">
<ellipse cx="83.9535" cy="83.8739" rx="83.9535" ry="83.8739" fill="white"/>
<path d="M75.0624 117.333H64.1666C61.9564 117.333 59.8368 116.455 58.274 114.893C56.7112 113.33 55.8333 111.21 55.8333 109V59.0001C55.8333 56.7899 56.7112 54.6703 58.274 53.1075C59.8368 51.5447 61.9564 50.6667 64.1666 50.6667H97.4999C99.7101 50.6667 101.83 51.5447 103.392 53.1075C104.955 54.6703 105.833 56.7899 105.833 59.0001V92.3334" stroke="#17804D" stroke-width="6.25" stroke-linecap="round" stroke-linejoin="round"/>
<path d="M93.3333 113.167L101.667 121.5L118.333 104.833" stroke="#17804D" stroke-width="6.25" stroke-linecap="round" stroke-linejoin="round"/>
<path d="M72.5 67.3333H89.1667" stroke="#17804D" stroke-width="6.25" stroke-linecap="round" stroke-linejoin="round"/>
<path d="M72.5 84H80.8333" stroke="#17804D" stroke-width="6.25" stroke-linecap="round" stroke-linejoin="round"/>
</svg>
