<svg width="168" height="168" viewBox="0 0 168 168" fill="none" xmlns="http://www.w3.org/2000/svg">
<ellipse cx="83.9535" cy="83.8739" rx="83.9535" ry="83.8739" fill="white"/>
<path d="M68.8333 60.6667C68.8333 64.8217 70.4838 68.8066 73.4219 71.7447C76.36 74.6827 80.3449 76.3333 84.4999 76.3333C88.655 76.3333 92.6399 74.6827 95.5779 71.7447C98.516 68.8066 100.167 64.8217 100.167 60.6667C100.167 56.5116 98.516 52.5267 95.5779 49.5887C92.6399 46.6506 88.655 45 84.4999 45C80.3449 45 76.36 46.6506 73.4219 49.5887C70.4838 52.5267 68.8333 56.5116 68.8333 60.6667Z" stroke="#17804D" stroke-width="6.25" stroke-linecap="round" stroke-linejoin="round"/>
<path d="M61 115.5V107.667C61 103.512 62.6506 99.5267 65.5887 96.5887C68.5267 93.6506 72.5116 92 76.6667 92H92.3333C96.4884 92 100.473 93.6506 103.411 96.5887C106.349 99.5267 108 103.512 108 107.667V115.5" stroke="#17804D" stroke-width="6.25" stroke-linecap="round" stroke-linejoin="round"/>
</svg>
