<svg width="168" height="168" viewBox="0 0 168 168" fill="none" xmlns="http://www.w3.org/2000/svg">
<ellipse cx="83.9535" cy="83.8739" rx="83.9535" ry="83.8739" fill="white"/>
<path d="M59.8333 104.833C59.8333 107.043 60.7112 109.163 62.274 110.726C63.8368 112.289 65.9564 113.167 68.1666 113.167C70.3767 113.167 72.4963 112.289 74.0591 110.726C75.6219 109.163 76.4999 107.043 76.4999 104.833C76.4999 102.623 75.6219 100.504 74.0591 98.9408C72.4963 97.378 70.3767 96.5 68.1666 96.5C65.9564 96.5 63.8368 97.378 62.274 98.9408C60.7112 100.504 59.8333 102.623 59.8333 104.833Z" stroke="#17804D" stroke-width="6.25" stroke-linecap="round" stroke-linejoin="round"/>
<path d="M101.5 104.833C101.5 107.043 102.378 109.163 103.941 110.726C105.504 112.289 107.623 113.167 109.833 113.167C112.043 113.167 114.163 112.289 115.726 110.726C117.289 109.163 118.167 107.043 118.167 104.833C118.167 102.623 117.289 100.504 115.726 98.9408C114.163 97.378 112.043 96.5 109.833 96.5C107.623 96.5 105.504 97.378 103.941 98.9408C102.378 100.504 101.5 102.623 101.5 104.833Z" stroke="#17804D" stroke-width="6.25" stroke-linecap="round" stroke-linejoin="round"/>
<path d="M59.8333 104.833H51.4999V88.1666M47.3333 54.8333H93.1666V104.833M76.4999 104.833H101.5M118.167 104.833H126.5V79.8333M126.5 79.8333H93.1666M126.5 79.8333L114 58.9999H93.1666" stroke="#17804D" stroke-width="6.25" stroke-linecap="round" stroke-linejoin="round"/>
<path d="M51.5 71.5H68.1667" stroke="#17804D" stroke-width="6.25" stroke-linecap="round" stroke-linejoin="round"/>
</svg>
