<?xml version="1.0" encoding="UTF-8"?><svg id="TEXTS" xmlns="http://www.w3.org/2000/svg" viewBox="0 0 1920 1080"><defs><style>.cls-1{fill:none;stroke:#1d262d;stroke-linecap:round;stroke-miterlimit:10;stroke-width:2.4px;}</style></defs><path class="cls-1" d="m159.6,78.4c0-24.2-19.6-43.7-43.7-43.7s-43.7,19.6-43.7,43.7,19.6,43.7,43.7,43.7,43.7-19.6,43.7-43.7Z"/><line class="cls-1" x1="115.8" y1="109" x2="115.8" y2="50.1"/><line class="cls-1" x1="107.8" y1="58.4" x2="115.7" y2="66.3"/><path class="cls-1" d="m133.6,80.9c0-15.8-17.8-33.1-17.8-33.1,0,0-17.7,18.1-17.7,33.1s7.9,17.8,17.7,17.8,17.8-7.9,17.8-17.8Z"/><line class="cls-1" x1="103.1" y1="66.3" x2="115.8" y2="79"/><line class="cls-1" x1="99.3" y1="76" x2="116.3" y2="93"/><line class="cls-1" x1="123.9" y1="58.4" x2="116.1" y2="66.3"/><line class="cls-1" x1="128.7" y1="66.2" x2="116.1" y2="79"/><line class="cls-1" x1="132.6" y1="76" x2="115.7" y2="93.1"/></svg>