<?xml version="1.0" encoding="UTF-8"?><svg id="TEXTS" xmlns="http://www.w3.org/2000/svg" viewBox="0 0 148.7 132.1"><defs><style>.cls-1{fill:none;stroke:#1d262d;stroke-linecap:round;stroke-miterlimit:10;stroke-width:2.4px;}</style></defs><path class="cls-1" d="m115.8,62.4c0-24.2-19.6-43.7-43.7-43.7S28.3,38.2,28.3,62.4s19.6,43.7,43.7,43.7,43.7-19.6,43.7-43.7Z"/><line class="cls-1" x1="72.1" y1="93" x2="72.1" y2="34.1"/><line class="cls-1" x1="64.1" y1="42.4" x2="71.9" y2="50.2"/><path class="cls-1" d="m89.8,64.9c0-15.8-17.8-33.1-17.8-33.1,0,0-17.7,18.1-17.7,33.1s7.9,17.8,17.7,17.8,17.8-7.9,17.8-17.8Z"/><line class="cls-1" x1="59.4" y1="50.2" x2="72.1" y2="63"/><line class="cls-1" x1="55.5" y1="60" x2="72.5" y2="77"/><line class="cls-1" x1="80.2" y1="42.4" x2="72.4" y2="50.3"/><line class="cls-1" x1="85" y1="50.2" x2="72.3" y2="63"/><line class="cls-1" x1="88.9" y1="60" x2="72" y2="77.1"/></svg>