<svg width="168" height="168" viewBox="0 0 168 168" fill="none" xmlns="http://www.w3.org/2000/svg">
<circle cx="83.8919" cy="83.8739" r="83.8739" fill="white"/>
<path d="M140.009 87.7868C137.973 86.8598 134.612 87.4631 132.278 87.2718C130.351 80.9595 126.851 77.1632 121.977 78.0608C120.197 73.9114 117.924 71.3953 114.325 72.0427C114.226 72.2046 113.593 70.8803 113.485 70.6154C113.425 70.586 113.366 70.5713 113.307 70.5419C113.089 70.4389 112.892 70.2917 112.704 70.1152C111.31 69.6443 109.876 68.2612 108.759 67.393C107.929 66.7456 107.078 66.1423 106.307 65.3478C105.309 64.3325 104.251 62.7139 102.976 62.5668C102.748 62.5374 102.541 62.4638 102.363 62.3314C101.75 62.3608 101.137 62.4932 100.573 62.3755C96.9154 57.4316 97.7656 53.2969 91.5867 53.4735C89.214 51.0898 86.7721 51.2516 84.1522 52.6642C81.6312 51.6342 79.4464 52.4435 77.5976 55.092C75.6797 55.7394 73.9299 56.6517 72.6743 59.0501C70.0446 58.6675 68.0179 59.7711 66.179 62.4638C63.2132 61.8752 60.8405 63.3172 59.0609 66.8045C56.3422 67.187 54.276 68.7026 52.6942 72.0574C49.0759 71.3806 46.7921 73.8967 44.9731 78.0902C40.4847 77.2809 36.4709 80.6211 34.899 86.9187C33.4062 87.8898 31.1916 86.9776 29.4418 87.2866C21.3054 87.3748 21.7503 104.208 32.8031 101.515C34.3651 109.637 38.2307 115.082 44.2217 114.979C71.3397 114.522 99.0014 115.891 126.02 114.449C130.361 112.963 133.04 107.533 134.147 101.5C137.33 101.471 140.83 102.604 142.57 97.3216C143.796 93.5989 142.54 89.1553 140.029 87.7721L140.009 87.7868ZM38.8535 86.7421C40.5836 83.5345 42.7487 82.5045 45.3487 83.6669C49.2143 85.6827 47.0788 76.4569 51.8638 77.2515C56.5597 80.1796 54.4441 72.8373 58.3492 72.2634C59.0906 72.131 59.8321 72.7343 60.6724 72.1751C62.62 69.3942 63.1341 66.157 66.6437 68.2023C67.0589 68.4672 67.5532 68.3053 68.1266 67.7315C69.1845 65.4066 70.4796 63.2878 72.6842 64.8328C75.1459 65.951 75.1261 60.0065 78.4281 60.4185C80.5042 59.7711 80.5437 56.2839 83.4404 57.9318C85.0123 58.8883 85.1408 57.6523 86.4359 57.1226C88.8976 55.6217 89.906 59.9477 92.1798 58.9324C93.9692 58.4027 95.0765 59.8005 95.5115 62.2872C95.8674 64.3325 96.7869 64.2736 97.6766 65.4655C98.4082 66.4513 98.3192 67.805 99.5352 68.1729C106.416 65.8186 103.767 72.7196 107.523 72.337C112.17 71.2481 110.618 79.9148 114.345 77.5752C120.099 75.3534 117.499 85.9181 121.512 83.711C124.241 82.475 126.465 83.5639 128.195 86.9923C128.482 87.9487 39.1402 86.9923 39.0216 87.316C38.7052 87.316 38.6459 87.1394 38.8436 86.7716L38.8535 86.7421ZM125.536 109.196C98.4082 110.711 70.8355 109.24 43.6186 109.696C40.3661 109.696 37.4101 106.459 36.5796 101.736C36.4511 101.074 130.113 101.736 130.232 101.515C130.321 104.87 127.533 108.284 125.526 109.196H125.536ZM138.319 96.2769C137.103 94.4523 26.99 99.823 27.4151 94.3494C27.4151 93.3488 27.9588 92.5395 28.6311 92.5395C29.857 94.2758 139.792 89.17 139.535 94.3494C139.574 95.3941 139.021 96.2769 138.319 96.2769Z" fill="#17804D"/>
</svg>
