<svg width="46" height="35" viewBox="0 0 46 35" fill="none" xmlns="http://www.w3.org/2000/svg">
<path d="M2 33.2116V31.3756C2 24.2778 7.97926 18.5238 15.355 18.5238C22.7308 18.5238 28.7101 24.2778 28.7101 31.3756V33.2116" stroke="#114123" stroke-width="2.15591" stroke-linecap="round"/>
<path d="M24.8943 22.1957C24.8943 17.1259 29.1652 13.0158 34.4336 13.0158C39.702 13.0158 43.9729 17.1259 43.9729 22.1957V23.1137" stroke="#114123" stroke-width="2.15591" stroke-linecap="round"/>
<path d="M15.3551 18.5238C19.5697 18.5238 22.9865 15.2358 22.9865 11.1799C22.9865 7.12398 19.5697 3.836 15.3551 3.836C11.1403 3.836 7.72363 7.12398 7.72363 11.1799C7.72363 15.2358 11.1403 18.5238 15.3551 18.5238Z" stroke="#114123" stroke-width="2.15591" stroke-linecap="round" stroke-linejoin="round"/>
<path d="M34.4335 13.0159C37.5947 13.0159 40.1571 10.5499 40.1571 7.50793C40.1571 4.46599 37.5947 2 34.4335 2C31.2724 2 28.71 4.46599 28.71 7.50793C28.71 10.5499 31.2724 13.0159 34.4335 13.0159Z" stroke="#114123" stroke-width="2.15591" stroke-linecap="round" stroke-linejoin="round"/>
</svg>
