<svg width="43" height="41" viewBox="0 0 43 41" fill="none" xmlns="http://www.w3.org/2000/svg">
<ellipse cx="21.5" cy="20.5" rx="21.5" ry="20.5" fill="#114123"/>
<path d="M31.2276 14.5294H15.473L17.7197 23.7658C17.8287 24.2139 18.2301 24.5294 18.6913 24.5294H29.2817C29.7429 24.5294 30.1443 24.2139 30.2533 23.7658L32.1993 15.7658C32.3524 15.1362 31.8755 14.5294 31.2276 14.5294Z" fill="white"/>
<path d="M10 12.1765L10.6586 11.9945C12.681 11.4355 14.7894 12.5457 15.473 14.5294V14.5294M15.473 14.5294H31.2276C31.8755 14.5294 32.3524 15.1362 32.1993 15.7658L30.2533 23.7658C30.1443 24.2139 29.7429 24.5294 29.2817 24.5294H18.6913C18.2301 24.5294 17.8287 24.2139 17.7197 23.7658L15.473 14.5294Z" stroke="white" stroke-width="2"/>
<mask id="path-4-inside-1_316_15" fill="white">
<ellipse cx="27.6354" cy="29.2354" rx="1.82432" ry="1.76471"/>
</mask>
<ellipse cx="27.6354" cy="29.2354" rx="1.82432" ry="1.76471" fill="white"/>
<path d="M27.4597 29.2354C27.4597 29.1488 27.4991 29.0803 27.5348 29.0457C27.5694 29.0123 27.6088 29.0001 27.6354 29.0001V33.0001C29.6843 33.0001 31.4597 31.3767 31.4597 29.2354H27.4597ZM27.6354 29.0001C27.6619 29.0001 27.7013 29.0123 27.7359 29.0457C27.7717 29.0803 27.811 29.1488 27.811 29.2354H23.811C23.811 31.3767 25.5864 33.0001 27.6354 33.0001V29.0001ZM27.811 29.2354C27.811 29.3221 27.7717 29.3905 27.7359 29.4251C27.7013 29.4586 27.6619 29.4707 27.6354 29.4707V25.4707C25.5864 25.4707 23.811 27.0941 23.811 29.2354H27.811ZM27.6354 29.4707C27.6088 29.4707 27.5694 29.4586 27.5348 29.4251C27.4991 29.3905 27.4597 29.3221 27.4597 29.2354H31.4597C31.4597 27.0941 29.6843 25.4707 27.6354 25.4707V29.4707Z" fill="white" mask="url(#path-4-inside-1_316_15)"/>
<mask id="path-6-inside-2_316_15" fill="white">
<ellipse cx="20.338" cy="29.2354" rx="1.82432" ry="1.76471"/>
</mask>
<ellipse cx="20.338" cy="29.2354" rx="1.82432" ry="1.76471" fill="white"/>
<path d="M20.1623 29.2354C20.1623 29.1488 20.2017 29.0803 20.2375 29.0457C20.2721 29.0123 20.3115 29.0001 20.338 29.0001V33.0001C22.387 33.0001 24.1623 31.3767 24.1623 29.2354H20.1623ZM20.338 29.0001C20.3645 29.0001 20.4039 29.0123 20.4385 29.0457C20.4743 29.0803 20.5137 29.1488 20.5137 29.2354H16.5137C16.5137 31.3767 18.289 33.0001 20.338 33.0001V29.0001ZM20.5137 29.2354C20.5137 29.3221 20.4743 29.3905 20.4385 29.4251C20.4039 29.4586 20.3645 29.4707 20.338 29.4707V25.4707C18.289 25.4707 16.5137 27.0941 16.5137 29.2354H20.5137ZM20.338 29.4707C20.3115 29.4707 20.2721 29.4586 20.2375 29.4251C20.2017 29.3905 20.1623 29.3221 20.1623 29.2354H24.1623C24.1623 27.0941 22.387 25.4707 20.338 25.4707V29.4707Z" fill="white" mask="url(#path-6-inside-2_316_15)"/>
</svg>
