<svg width="168" height="168" viewBox="0 0 168 168" fill="none" xmlns="http://www.w3.org/2000/svg">
<circle cx="83.8827" cy="83.8739" r="83.8739" fill="white"/>
<path d="M133.429 85.682V86.5096C132.996 97.2429 126.572 107.11 118.86 114.164C118.286 114.686 117.84 114.953 117.101 114.953C115.686 114.953 114.297 114.953 112.933 114.941C112.818 114.941 112.754 115.004 112.754 115.119C112.754 117.92 112.754 120.734 112.754 123.548C112.754 125.139 111.875 125.712 110.32 125.712C92.6526 125.712 74.9983 125.712 57.3313 125.712C55.2918 125.712 54.7692 124.948 54.7692 122.924C54.7692 120.301 54.7692 117.691 54.7692 115.068C54.7692 115.004 54.731 114.966 54.6672 114.966C53.0484 114.953 51.4168 114.941 49.798 114.915C48.638 114.903 47.8222 113.973 46.8025 112.98C39.677 106.003 34.0302 96.8736 33.5586 86.6751V85.6565C33.89 84.1032 34.8843 83.8995 36.3756 83.9122C37.5228 83.9122 38.6573 83.9122 39.779 83.9122C39.8427 83.9122 39.8937 83.8485 39.8682 83.7849C38.0582 79.4304 36.3246 74.6049 35.9677 69.9194C35.5726 64.6992 37.7905 60.001 43.6923 59.9246C46.2416 59.8864 48.4213 60.7013 50.7157 61.7835C50.7922 61.8217 50.8305 61.7835 50.8559 61.7199C52.4748 55.4174 55.1006 49.5987 58.7207 44.2512C59.664 42.8634 60.4925 41.883 61.2191 41.2846C64.5842 38.5726 69.428 38.6235 72.6784 41.4374C73.354 42.023 74.1825 43.0289 75.164 44.4294C77.7771 48.1982 79.9568 52.1961 81.7286 56.4232C81.7541 56.4996 81.8561 56.4996 81.8943 56.4232C86.3174 47.7144 97.0375 45.0279 104.94 50.9484C104.991 50.9866 105.081 50.9866 105.132 50.9484C113.608 44.6586 126.011 48.2746 129.006 58.6132C130.421 63.4896 129.593 68.0733 126.521 72.3258C126.482 72.3768 126.482 72.4404 126.521 72.4913C129.032 75.8272 130.052 79.5832 129.567 83.7849C129.567 83.8613 129.593 83.8995 129.669 83.8995C131.288 83.8995 133.009 83.5939 133.442 85.6692M62.8379 57.9384C63.5262 58.5495 64.1636 59.2498 64.8264 59.8991C64.8646 59.9373 64.9284 59.8991 64.9284 59.8482C64.9156 57.1617 64.9029 54.4625 64.9284 51.7505C64.9284 51.2667 64.9794 50.8974 65.0686 50.6555C65.6677 49.1022 67.8346 48.9621 68.5867 50.4518C68.7524 50.7701 68.8289 51.2794 68.8289 51.9542C68.8289 54.6025 68.8289 57.2381 68.8289 59.8355C68.8289 59.9755 68.8799 59.9883 68.9691 59.8991C69.7721 59.0715 70.9958 57.5437 72.0156 57.2636C73.3412 56.8943 74.7051 58.2567 74.3482 59.619C74.259 59.9501 74.0168 60.332 73.6089 60.7395C72.1303 62.2419 70.6007 63.7697 69.0201 65.3358C68.8926 65.4631 68.8289 65.6159 68.8289 65.8069V76.884C68.8289 76.9476 68.8544 77.0113 68.9054 77.0622C70.9576 79.2522 72.9333 81.5058 74.8071 83.8485C74.8453 83.8995 74.9091 83.9249 74.9728 83.9249H78.4399C78.4399 83.9249 78.5164 83.8613 78.4782 83.8231C72.3852 77.4569 73.2393 68.0605 79.3704 62.1018C79.5362 61.949 79.5616 61.7326 79.4724 61.4525C77.4967 55.8757 74.8708 50.7828 71.6204 46.1865C70.8556 45.117 70.2183 44.404 69.6829 44.0347C67.9876 42.8761 65.5275 42.9525 63.8831 44.1748C63.3605 44.5695 62.7232 45.308 61.9839 46.4157C58.3893 51.7505 55.8399 57.5819 54.3486 63.8971C54.3358 63.9607 54.3486 64.0117 54.4123 64.0626C58.0961 66.7618 61.5632 69.7157 64.8009 72.9242C64.8519 72.9752 64.9411 72.937 64.9411 72.8733V65.6159C64.9411 65.6159 64.9156 65.5013 64.8646 65.4631C63.3095 63.9353 61.7672 62.4074 60.2248 60.8795C59.7532 60.4084 59.4728 60.0519 59.3835 59.8227C58.708 58.002 60.4798 56.385 62.1623 57.3527C62.4173 57.5055 62.6085 57.7601 62.8506 57.9638M90.8425 83.8613L98.8857 75.8272C98.8857 75.8272 98.975 75.6999 98.975 75.6108C98.975 71.6765 98.975 67.7295 98.975 63.7825C98.975 60.8031 102.875 60.8795 102.875 63.7188C102.875 66.3162 102.875 69.0027 102.875 71.7656C102.875 71.8038 102.914 71.8165 102.939 71.7911C105.54 69.1555 108.165 66.5454 110.817 63.9353C112.945 61.8344 115.635 64.5973 113.57 66.6854C111.033 69.2446 108.42 71.8547 105.756 74.503C105.705 74.554 105.743 74.6304 105.807 74.6304C108.382 74.6176 110.97 74.6176 113.583 74.6304C116.82 74.6431 116.464 78.5264 114.195 78.5264C110.077 78.5264 105.96 78.5264 101.843 78.5264C101.767 78.5264 101.716 78.5519 101.665 78.6028L96.4511 83.7976C96.4511 83.7976 96.4384 83.9249 96.5021 83.9249H125.463C125.552 83.9249 125.641 83.8485 125.654 83.7594C126.177 80.0416 125.221 76.8203 122.786 74.1211C122.353 73.6373 122.098 73.268 122.008 73.0006C121.6 71.6383 122.582 71.0399 123.334 70.0722C127.923 64.1645 125.794 55.5956 118.873 52.6036C114.768 50.8338 109.988 51.7632 106.725 54.7171C105.425 55.8885 104.545 55.8375 103.283 54.6789C100.16 51.8014 95.7373 50.9356 91.7858 52.3998C88.1657 53.724 85.7948 56.3341 84.6604 60.2047C84.4054 61.0832 84.5074 62.7894 83.7553 63.4005C82.9395 64.0626 82.3404 64.5719 81.9708 64.9284C76.069 70.7852 77.2545 80.0798 84.9535 83.6575C85.2595 83.7976 85.6036 83.874 85.986 83.8867C87.5411 83.9122 89.109 83.9122 90.6641 83.8867C90.7278 83.8867 90.7915 83.8613 90.8298 83.8103M69.6447 83.6957C64.3675 77.5843 58.4275 71.7274 51.8502 67.0547C49.0969 65.0939 45.2346 62.8403 41.7675 64.2026C39.2691 65.183 39.779 70.7852 40.2889 72.7587C41.2704 76.5402 42.5323 80.2198 44.1129 83.8103C44.1384 83.874 44.1894 83.8995 44.2531 83.8995H52.9719C53.0866 83.8995 53.1121 83.8485 53.0484 83.7594C50.3843 80.0161 47.733 76.2728 45.0817 72.5168C43.3863 70.1104 46.522 67.8695 48.2429 70.2632C49.2626 71.6765 50.2696 73.1025 51.2766 74.5285C51.3276 74.5922 51.4168 74.554 51.4168 74.4776C51.4168 73.7136 51.2893 72.7205 51.6462 72.0839C52.4238 70.7216 54.3486 70.7725 55.0369 72.1348C55.2026 72.4532 55.2791 72.8988 55.2663 73.4717C55.2408 75.6744 55.2536 77.8898 55.2918 80.0925C55.2918 80.1689 55.3173 80.2326 55.3556 80.2835L57.8412 83.7849C57.8412 83.7849 57.9559 83.8867 58.0324 83.8867H69.5427C69.7212 83.8867 69.7466 83.8231 69.6319 83.683M49.2881 109.861C49.798 110.357 50.1549 110.714 50.3588 110.943C50.4098 110.994 50.4735 111.019 50.5373 111.019C58.6952 111.019 66.8659 111.019 75.0238 111.019C78.0448 111.019 77.9301 114.928 75.0493 114.915C69.6319 114.903 64.2018 114.903 58.7589 114.915C58.708 114.915 58.6697 114.953 58.6697 115.004V121.676C58.6697 121.74 58.708 121.778 58.7717 121.778H108.764C108.764 121.778 108.854 121.752 108.854 121.689V115.004C108.854 114.941 108.815 114.903 108.752 114.903C103.475 114.903 98.1847 114.903 92.9075 114.903C92.3976 114.903 92.0152 114.852 91.773 114.762C90.2307 114.19 90.0395 112.063 91.4671 111.261C91.773 111.083 92.2447 110.994 92.8565 110.994C100.632 110.994 108.42 110.994 116.196 110.994C116.565 110.994 116.655 110.841 116.897 110.612C123.105 104.577 128.471 96.6572 129.427 87.8719C129.427 87.8083 129.389 87.7573 129.325 87.7573H37.6503C37.5738 87.7573 37.5483 87.7955 37.5611 87.8592C38.4279 96.2625 43.3736 104.042 49.3008 109.835L49.2881 109.861Z" fill="#17804D"/>
<path d="M85.8964 112.98C85.8964 114.05 85.0296 114.903 83.9716 114.903C82.9137 114.903 82.0469 114.037 82.0469 112.98C82.0469 111.923 82.9137 111.058 83.9716 111.058C85.0296 111.058 85.8964 111.923 85.8964 112.98Z" fill="#17804D"/>
</svg>
