<svg width="34" height="34" viewBox="0 0 34 34" fill="none" xmlns="http://www.w3.org/2000/svg">
<g clip-path="url(#clip0_104_682)">
<path d="M16.9944 0.000850468C20.9725 0.000850468 24.9498 0.0025514 28.9279 0C29.6935 0 30.4403 0.0935515 31.1335 0.432888C32.9316 1.31397 33.9234 2.75466 33.9761 4.76262C34.0237 6.57412 33.9872 8.38731 33.988 10.1997C33.988 16.4591 33.9855 22.7185 33.9914 28.9771C33.9914 29.7596 33.8757 30.5131 33.521 31.213C32.6305 32.9718 31.1871 33.8928 29.2205 33.9915C28.8956 34.0077 28.5682 33.9958 28.2424 33.9958C20.509 33.9958 12.7747 33.9932 5.04128 33.9983C3.967 33.9983 2.96928 33.7534 2.09318 33.1266C0.728864 32.1511 0.00927821 30.8184 0.00502534 29.1328C-0.00433098 25.8338 0.00162304 22.5348 0.00162304 19.235C0.00162304 14.4622 0.00417476 9.68938 -7.81085e-05 4.9174C-7.81085e-05 3.52774 0.482197 2.34134 1.47397 1.37351C2.30583 0.562159 3.30951 0.105458 4.47479 0.0246636C4.72146 0.00765421 4.96983 0.0025514 5.21734 0.0025514C9.14274 0.000850468 13.0681 0.00170094 16.9944 0.0025514V0.000850468ZM23.2903 24.0606C21.778 24.4152 20.2895 24.5573 18.7857 24.5232C17.4758 24.4935 16.1906 24.3098 14.9581 23.8386C14.1339 23.5239 13.3795 23.097 12.756 22.46C12.1521 21.8417 11.7923 21.1069 11.6987 20.2454C11.6179 19.5072 11.8552 18.8566 12.2618 18.2578C12.7687 17.512 13.4313 16.9218 14.1994 16.4651C14.9377 16.0262 15.6896 15.6044 16.4662 15.2404C17.526 14.7437 18.6147 14.3057 19.6933 13.849C19.8557 13.7801 19.9876 13.7129 20.0394 13.5207C20.1943 12.9424 20.3669 12.3684 20.5285 11.7917C20.5464 11.728 20.5311 11.6548 20.5311 11.5536C20.3916 11.6046 20.281 11.6387 20.1755 11.6846C18.966 12.2008 17.7574 12.717 16.5495 13.2367C16.2629 13.36 15.9831 13.5012 15.6973 13.627C15.4106 13.7538 15.1214 13.7716 14.8271 13.6364C13.9885 13.2528 13.2204 12.7638 12.6114 12.0656C12.4038 11.8275 12.2541 11.5238 12.1325 11.2279C11.959 10.8069 12.0908 10.4395 12.4336 10.1427C12.7636 9.85607 13.1413 9.65366 13.5496 9.51163C14.8867 9.04813 16.2127 9.11957 17.5294 9.60433C17.6366 9.64345 17.7429 9.68343 17.8603 9.72765C17.947 9.60858 18.0227 9.50568 18.1027 9.39597C17.6655 8.79979 17.1807 8.2759 16.5597 7.89574C15.198 7.06313 13.3999 7.098 12.1215 8.51658C11.5312 9.17144 11.1714 9.94112 10.9647 10.7916C10.6423 12.1209 10.9375 13.2724 11.9513 14.2105C12.295 14.5285 12.6692 14.8134 13.029 15.1145C13.1039 15.1774 13.1753 15.2446 13.2153 15.2804C12.7271 15.8485 12.2235 16.3638 11.8016 16.9388C10.7401 18.3871 10.3616 20.0166 10.684 21.7873C11.065 23.8845 12.329 25.2512 14.2794 26.0184C15.7781 26.6077 17.338 26.7183 18.9312 26.6043C19.8829 26.5363 20.7301 26.2225 21.5058 25.6773C22.1336 25.2359 22.7706 24.809 23.4086 24.3727C23.3635 24.2511 23.3337 24.1694 23.2929 24.0597L23.2903 24.0606Z" fill="#124123"/>
<path d="M23.2903 24.0606C23.3311 24.1703 23.3609 24.2511 23.406 24.3735C22.768 24.8098 22.131 25.2368 21.5032 25.6782C20.7284 26.2233 19.8812 26.538 18.9286 26.6052C17.3363 26.7183 15.7755 26.6077 14.2768 26.0192C12.3264 25.2521 11.0624 23.8854 10.6814 21.7881C10.3599 20.0174 10.7375 18.388 11.799 16.9396C12.2209 16.3647 12.7236 15.8493 13.2127 15.2812C13.1727 15.2455 13.1013 15.1783 13.0264 15.1154C12.6666 14.8143 12.2932 14.5294 11.9487 14.2113C10.9349 13.2741 10.6397 12.1217 10.9621 10.7924C11.1688 9.94196 11.5286 9.17228 12.1189 8.51742C13.3981 7.09884 15.1954 7.06397 16.5572 7.89658C17.1781 8.27674 17.6638 8.80063 18.1001 9.39681C18.0201 9.50652 17.9444 9.60942 17.8577 9.72849C17.7403 9.68511 17.634 9.64514 17.5268 9.60517C16.211 9.1204 14.8841 9.04896 13.547 9.51247C13.1378 9.6545 12.761 9.85691 12.431 10.1435C12.0882 10.4403 11.9564 10.8077 12.1299 11.2287C12.2524 11.5247 12.4012 11.8283 12.6088 12.0664C13.2178 12.7638 13.9859 13.2537 14.8245 13.6372C15.1188 13.7716 15.408 13.7546 15.6947 13.6279C15.9805 13.5012 16.2603 13.3608 16.5469 13.2375C17.7548 12.7179 18.9634 12.2016 20.1729 11.6854C20.2784 11.6403 20.389 11.6055 20.5285 11.5544C20.5285 11.6556 20.5438 11.7288 20.5259 11.7926C20.3652 12.37 20.1925 12.9433 20.0369 13.5216C19.985 13.7146 19.8531 13.781 19.6907 13.8499C18.6121 14.3066 17.5234 14.7437 16.4636 15.2412C15.687 15.6052 14.9343 16.0271 14.1968 16.4659C13.4287 16.9226 12.7661 17.5128 12.2592 18.2587C11.8526 18.8574 11.6162 19.508 11.6961 20.2462C11.7897 21.1077 12.1495 21.8426 12.7534 22.4608C13.376 23.0978 14.1305 23.5248 14.9555 23.8394C16.188 24.3106 17.4741 24.4943 18.7831 24.5241C20.2869 24.5581 21.7763 24.4161 23.2877 24.0614L23.2903 24.0606Z" fill="white"/>
</g>
<defs>
<clipPath id="clip0_104_682">
<rect width="34" height="34" fill="white"/>
</clipPath>
</defs>
</svg>
