<svg width="40" height="40" viewBox="0 0 40 40" fill="none" xmlns="http://www.w3.org/2000/svg">
<circle cx="20" cy="20" r="19" stroke="#114123" stroke-width="2"/>
<path d="M18.4286 7C16.7 7 15.2857 8.41429 15.2857 10.1429H12.1429C10.4143 10.1429 9 11.5571 9 13.2857H31C31 11.5571 29.5857 10.1429 27.8571 10.1429H24.7143C24.7143 8.41429 23.3 7 21.5714 7H18.4286ZM12.1429 16.4286V31.5457C12.1429 31.8914 12.3943 32.1429 12.74 32.1429H27.2914C27.6371 32.1429 27.8886 31.8914 27.8886 31.5457V16.4286H24.7457V27.4286C24.7457 28.3086 24.0543 29 23.1743 29C22.2943 29 21.6029 28.3086 21.6029 27.4286V16.4286H18.46V27.4286C18.46 28.3086 17.7686 29 16.8886 29C16.0086 29 15.3171 28.3086 15.3171 27.4286V16.4286H12.1743H12.1429Z" fill="#114123"/>
</svg>
