<svg width="16" height="15" viewBox="0 0 16 15" fill="none" xmlns="http://www.w3.org/2000/svg">
<path d="M10.8977 9.81394C11.0977 10.0039 11.2877 10.1839 11.4777 10.3639C12.6877 11.5339 13.8977 12.6939 15.1077 13.8639C15.2277 13.9839 15.3177 14.1039 15.3177 14.2739C15.3177 14.4839 15.2077 14.6239 15.0277 14.7139C14.8377 14.8039 14.6577 14.7739 14.4877 14.6539C14.4477 14.6239 14.4077 14.5839 14.3677 14.5439C13.0077 13.2339 11.6477 11.9239 10.2877 10.6139C10.2477 10.5739 10.2077 10.5439 10.1677 10.5039C8.63767 11.6939 6.90767 12.1439 4.97767 11.7939C3.42767 11.5039 2.16767 10.7339 1.22767 9.51394C-0.672333 7.04394 -0.332333 3.65394 2.00767 1.56394C4.32767 -0.496064 7.86767 -0.526064 10.2677 1.50394C12.6377 3.50394 13.1677 7.15394 10.8877 9.80394L10.8977 9.81394ZM6.18767 10.9239C9.02767 10.9239 11.3377 8.69394 11.3377 5.95394C11.3377 3.22394 9.01767 0.983936 6.18767 0.983936C3.35767 0.983936 1.03767 3.22394 1.03767 5.95394C1.03767 8.68394 3.35767 10.9239 6.18767 10.9139V10.9239Z" fill="black"/>
</svg>
