<svg width="16" height="15" viewBox="0 0 16 15" fill="none" xmlns="http://www.w3.org/2000/svg">
<mask id="path-1-inside-1_248_26" fill="white">
<path d="M10.8977 9.81394C11.0977 10.0039 11.2877 10.1839 11.4777 10.3639C12.6877 11.5339 13.8977 12.6939 15.1077 13.8639C15.2277 13.9839 15.3177 14.1039 15.3177 14.2739C15.3177 14.4839 15.2077 14.6239 15.0277 14.7139C14.8377 14.8039 14.6577 14.7739 14.4877 14.6539C14.4477 14.6239 14.4077 14.5839 14.3677 14.5439C13.0077 13.2339 11.6477 11.9239 10.2877 10.6139C10.2477 10.5739 10.2077 10.5439 10.1677 10.5039C8.63767 11.6939 6.90767 12.1439 4.97767 11.7939C3.42767 11.5039 2.16767 10.7339 1.22767 9.51394C-0.672333 7.04394 -0.332333 3.65394 2.00767 1.56394C4.32767 -0.496064 7.86767 -0.526064 10.2677 1.50394C12.6377 3.50394 13.1677 7.15394 10.8877 9.80394L10.8977 9.81394ZM6.18767 10.9239C9.02767 10.9239 11.3377 8.69394 11.3377 5.95394C11.3377 3.22394 9.01767 0.983936 6.18767 0.983936C3.35767 0.983936 1.03767 3.22394 1.03767 5.95394C1.03767 8.68394 3.35767 10.9239 6.18767 10.9139V10.9239Z"/>
</mask>
<path d="M10.8977 9.81394C11.0977 10.0039 11.2877 10.1839 11.4777 10.3639C12.6877 11.5339 13.8977 12.6939 15.1077 13.8639C15.2277 13.9839 15.3177 14.1039 15.3177 14.2739C15.3177 14.4839 15.2077 14.6239 15.0277 14.7139C14.8377 14.8039 14.6577 14.7739 14.4877 14.6539C14.4477 14.6239 14.4077 14.5839 14.3677 14.5439C13.0077 13.2339 11.6477 11.9239 10.2877 10.6139C10.2477 10.5739 10.2077 10.5439 10.1677 10.5039C8.63767 11.6939 6.90767 12.1439 4.97767 11.7939C3.42767 11.5039 2.16767 10.7339 1.22767 9.51394C-0.672333 7.04394 -0.332333 3.65394 2.00767 1.56394C4.32767 -0.496064 7.86767 -0.526064 10.2677 1.50394C12.6377 3.50394 13.1677 7.15394 10.8877 9.80394L10.8977 9.81394ZM6.18767 10.9239C9.02767 10.9239 11.3377 8.69394 11.3377 5.95394C11.3377 3.22394 9.01767 0.983936 6.18767 0.983936C3.35767 0.983936 1.03767 3.22394 1.03767 5.95394C1.03767 8.68394 3.35767 10.9239 6.18767 10.9139V10.9239Z" fill="#114123"/>
<path d="M10.8977 9.81394L9.48339 11.2281L9.50155 11.2462L9.52017 11.2639L10.8977 9.81394ZM11.4777 10.3639L12.8679 8.92616L12.8606 8.91906L12.8532 8.91203L11.4777 10.3639ZM15.1077 13.8639L16.5219 12.4497L16.51 12.4378L16.4979 12.4262L15.1077 13.8639ZM15.0277 14.7139L15.8838 16.5214L15.9031 16.5123L15.9221 16.5028L15.0277 14.7139ZM14.4877 14.6539L13.2877 16.2539L13.3107 16.2712L13.3343 16.2879L14.4877 14.6539ZM14.3677 14.5439L15.7819 13.1297L15.7686 13.1165L15.7552 13.1035L14.3677 14.5439ZM10.2877 10.6139L8.87345 12.0281L8.88669 12.0414L8.90018 12.0544L10.2877 10.6139ZM10.1677 10.5039L11.5819 9.08972L10.3334 7.84128L8.93979 8.92523L10.1677 10.5039ZM4.97767 11.7939L4.60985 13.7599L4.62079 13.7618L4.97767 11.7939ZM1.22767 9.51394L-0.357581 10.7334L-0.356615 10.7346L1.22767 9.51394ZM2.00767 1.56394L0.679734 0.0683995L0.675382 0.0722865L2.00767 1.56394ZM10.2677 1.50394L8.97607 3.03095L8.97781 3.03242L10.2677 1.50394ZM10.8877 9.80394L9.37158 8.49953L8.16146 9.90603L9.47339 11.2181L10.8877 9.80394ZM6.18767 10.9239H4.18767V12.9239H6.18767V10.9239ZM6.18767 10.9139H8.18767V8.90686L6.1806 8.91395L6.18767 10.9139ZM9.52017 11.2639C9.72133 11.455 9.91231 11.636 10.1022 11.8158L12.8532 8.91203C12.663 8.73191 12.474 8.55284 12.2752 8.36394L9.52017 11.2639ZM10.0874 11.8017C10.6942 12.3884 11.3008 12.9724 11.9055 13.5547C12.5108 14.1374 13.1142 14.7184 13.7174 15.3017L16.4979 12.4262C15.8911 11.8394 15.2846 11.2554 14.6798 10.6732C14.0746 10.0904 13.4711 9.50942 12.8679 8.92616L10.0874 11.8017ZM13.6935 15.2781C13.7082 15.2929 13.6119 15.2027 13.5172 15.0354C13.4042 14.8358 13.3177 14.572 13.3177 14.2739H17.3177C17.3177 13.2733 16.731 12.6588 16.5219 12.4497L13.6935 15.2781ZM13.3177 14.2739C13.3177 14.0086 13.3943 13.6927 13.5937 13.4035C13.7809 13.1321 14.0026 12.9904 14.1332 12.9251L15.9221 16.5028C16.2328 16.3474 16.5994 16.0908 16.8866 15.6744C17.1861 15.2401 17.3177 14.7493 17.3177 14.2739H13.3177ZM14.1715 12.9065C14.3905 12.8027 14.6794 12.7383 14.9982 12.7781C15.3022 12.8161 15.5198 12.9344 15.641 13.02L13.3343 16.2879C13.9943 16.7537 14.9386 16.9692 15.8838 16.5214L14.1715 12.9065ZM15.6877 13.0539C15.7197 13.078 15.7445 13.0985 15.7612 13.1129C15.778 13.1273 15.7898 13.1382 15.7955 13.1436C15.8012 13.149 15.8036 13.1513 15.8007 13.1485C15.7973 13.1451 15.7928 13.1407 15.7819 13.1297L12.9535 15.9581C12.9673 15.972 13.1117 16.122 13.2877 16.2539L15.6877 13.0539ZM15.7552 13.1035C15.0752 12.4485 14.3952 11.7935 13.7152 11.1385C13.0352 10.4835 12.3552 9.82849 11.6752 9.17349L8.90018 12.0544C9.58018 12.7094 10.2602 13.3644 10.9402 14.0194C11.6202 14.6744 12.3002 15.3294 12.9802 15.9844L15.7552 13.1035ZM11.7019 9.19972C11.6625 9.16037 11.6275 9.1278 11.6007 9.10352C11.5757 9.08085 11.5526 9.06075 11.5447 9.05378C11.5326 9.04325 11.5357 9.04585 11.5407 9.0504C11.5475 9.05655 11.5625 9.07037 11.5819 9.08972L8.75345 11.9181C8.79281 11.9575 8.82784 11.9901 8.85463 12.0143C8.87965 12.037 8.90269 12.0571 8.91066 12.0641C8.92269 12.0746 8.91965 12.072 8.91463 12.0675C8.90784 12.0613 8.89281 12.0475 8.87345 12.0281L11.7019 9.19972ZM8.93979 8.92523C7.84589 9.77604 6.68923 10.0717 5.33454 9.82603L4.62079 13.7618C7.12611 14.2162 9.42945 13.6118 11.3955 12.0826L8.93979 8.92523ZM5.34548 9.82805C4.27095 9.62701 3.44702 9.1175 2.81195 8.29326L-0.356615 10.7346C0.888313 12.3504 2.58438 13.3809 4.60986 13.7598L5.34548 9.82805ZM2.81292 8.29451C1.56369 6.67052 1.76664 4.46081 3.33995 3.05558L0.675382 0.0722865C-2.43131 2.84707 -2.90836 7.41735 -0.357581 10.7334L2.81292 8.29451ZM3.33559 3.05947C4.9002 1.67021 7.32371 1.63333 8.97607 3.03095L11.5593 -0.0230782C8.41163 -2.68546 3.75514 -2.66234 0.67974 0.0684059L3.33559 3.05947ZM8.97781 3.03242C10.5454 4.35526 10.8865 6.73881 9.37158 8.49953L12.4038 11.1083C15.4489 7.56907 14.73 2.65261 11.5575 -0.0245479L8.97781 3.03242ZM9.47339 11.2181L9.48339 11.2281L12.3119 8.39979L12.3019 8.38979L9.47339 11.2181ZM6.18767 12.9239C10.0648 12.9239 13.3377 9.86479 13.3377 5.95394H9.33767C9.33767 7.52309 7.99056 8.92394 6.18767 8.92394V12.9239ZM13.3377 5.95394C13.3377 2.05317 10.0549 -1.01606 6.18767 -1.01606V2.98394C7.98047 2.98394 9.33767 4.3947 9.33767 5.95394H13.3377ZM6.18767 -1.01606C2.32047 -1.01606 -0.962333 2.05317 -0.962333 5.95394H3.03767C3.03767 4.3947 4.39486 2.98394 6.18767 2.98394V-1.01606ZM-0.962333 5.95394C-0.962333 9.85359 2.32078 12.9276 6.19473 12.9139L6.1806 8.91395C4.39456 8.92026 3.03767 7.51428 3.03767 5.95394H-0.962333ZM4.18767 10.9139V10.9239H8.18767V10.9139H4.18767Z" fill="#114123" mask="url(#path-1-inside-1_248_26)"/>
</svg>
